<svg xmlns="http://www.w3.org/2000/svg" width="960" height="600" viewBox="0 0 960 600" fill="none">
  <title>Graduate's Guide — layout illustration (sanitized fixture data, not a screenshot)</title>
  <rect width="960" height="600" rx="24" fill="#F8FAFC"/>
  <rect x="24" y="24" width="912" height="552" rx="16" fill="#0F172A"/>
  <rect x="24" y="24" width="200" height="552" fill="#1E293B"/>
  <text x="48" y="68" font-family="IBM Plex Sans, Segoe UI, sans-serif" font-size="18" font-weight="700" fill="#F8FAFC">Graduate's Guide</text>
  <rect x="48" y="96" width="152" height="32" rx="8" fill="#1D4ED8"/>
  <text x="64" y="118" font-family="IBM Plex Sans, Segoe UI, sans-serif" font-size="13" font-weight="600" fill="#FFFFFF">Today</text>
  <text x="64" y="158" font-family="IBM Plex Sans, Segoe UI, sans-serif" font-size="13" fill="#94A3B8">Queue</text>
  <text x="64" y="186" font-family="IBM Plex Sans, Segoe UI, sans-serif" font-size="13" fill="#94A3B8">Follow-ups</text>
  <text x="64" y="214" font-family="IBM Plex Sans, Segoe UI, sans-serif" font-size="13" fill="#94A3B8">Evaluate</text>
  <text x="64" y="242" font-family="IBM Plex Sans, Segoe UI, sans-serif" font-size="13" fill="#94A3B8">Settings</text>
  <rect x="248" y="56" width="664" height="40" rx="8" fill="#CCFBF1" fill-opacity="0.12" stroke="#0F766E" stroke-width="2"/>
  <text x="268" y="82" font-family="IBM Plex Sans, Segoe UI, sans-serif" font-size="13" fill="#5EEAD4">You copy in the app · you Send in your mail client or job portal</text>
  <text x="248" y="132" font-family="IBM Plex Sans, Segoe UI, sans-serif" font-size="32" font-weight="700" fill="#F8FAFC">Today</text>
  <rect x="248" y="152" width="664" height="88" rx="14" fill="#1E293B" stroke="#334155"/>
  <text x="272" y="180" font-family="IBM Plex Sans, Segoe UI, sans-serif" font-size="12" fill="#94A3B8">IF YOU ONLY DO ONE THING</text>
  <text x="272" y="212" font-family="IBM Plex Sans, Segoe UI, sans-serif" font-size="18" font-weight="600" fill="#F8FAFC">Interview prep: Sample Bank</text>
  <rect x="248" y="256" width="664" height="108" rx="12" fill="#1E293B" stroke="#334155"/>
  <rect x="272" y="276" width="18" height="18" rx="4" stroke="#64748B" stroke-width="2"/>
  <text x="300" y="292" font-family="IBM Plex Sans, Segoe UI, sans-serif" font-size="15" font-weight="600" fill="#F8FAFC">Mission 1 — Interview prep: Sample Bank (~30 min)</text>
  <text x="300" y="316" font-family="IBM Plex Sans, Segoe UI, sans-serif" font-size="12" fill="#94A3B8">Who: YOU read aloud · Done when: Part 2 scripts read once</text>
  <rect x="300" y="328" width="108" height="28" rx="8" fill="#1D4ED8"/>
  <text x="318" y="347" font-family="IBM Plex Sans, Segoe UI, sans-serif" font-size="12" font-weight="700" fill="#FFFFFF">Open script</text>
  <rect x="248" y="380" width="664" height="108" rx="12" fill="#1E293B" stroke="#334155"/>
  <rect x="272" y="400" width="18" height="18" rx="4" stroke="#64748B" stroke-width="2"/>
  <text x="300" y="416" font-family="IBM Plex Sans, Segoe UI, sans-serif" font-size="15" font-weight="600" fill="#E2E8F0">Mission 2 — Follow-up: Sample Bank (~10 min)</text>
  <text x="300" y="440" font-family="IBM Plex Sans, Segoe UI, sans-serif" font-size="12" fill="#94A3B8">Who: YOU click Send (in your email client, not in this app)</text>
  <rect x="300" y="452" width="108" height="28" rx="8" fill="#1D4ED8"/>
  <text x="318" y="471" font-family="IBM Plex Sans, Segoe UI, sans-serif" font-size="12" font-weight="700" fill="#FFFFFF">Open script</text>
  <text x="248" y="528" font-family="IBM Plex Mono, Consolas, monospace" font-size="11" fill="#64748B">Fixture: fixtures/sanitized-vault/ · layout illustration, not a live capture</text>
</svg>
